/* XPM */
static char *_633599461279[] = {
/* columns rows colors chars-per-pixel */
"28 28 32 1 ",
"  c black",
". c #580000",
"X c #6A0000",
"o c #8D0000",
"O c #B10000",
"+ c #DD0000",
"@ c #3E1200",
"# c #592C00",
"$ c #754800",
"% c #926400",
"& c #AD8100",
"* c #CA9C00",
"= c #D6AB00",
"- c #E3B900",
"; c #F2DF04",
": c #FFFF08",
"> c white",
", c None",
"< c black",
"1 c black",
"2 c black",
"3 c black",
"4 c black",
"5 c black",
"6 c black",
"7 c black",
"8 c black",
"9 c black",
"0 c black",
"q c black",
"w c black",
"e c black",
/* pixels */
"$;==XXXX==XXXXXXXX==XXXX;==$",
"$;--Xooo--Xooooooo--Xooo;--%",
"%:::oOOO::oOOOOOOO::oOOO:::%",
"%:;;o+++==o+++++++==o+++:;;%",
"%::::::::::::::::::::::::::%",
"%:*::::::*::::::::*::::::*:%",
"%:;;;;;;;;;;;;;;;;;;;;;;:;;$",
"%:;;$$%&==$$%%%%&&==$$%&:;;$",
"$:;;o+++;;o+++++++;;o+++:;;$",
"$;--o+++--o+++++++--o+++;--$",
"$;==oOOO==oOOOOOOO==oOOO;==$",
"$;--XOOO--XOOOOOOO--XOOO;--$",
"#;==Xooo==Xooooooo==Xooo;==#",
"#;==Xooo==Xooooooo==Xooo;==#",
"#;==%=;;&&%=%%%%;;&&%=;;;==#",
"#-$********%;;;;#%*******$*#",
"#-********%;****;#%********#",
"@#########;*#@##*;@########@",
"@*%%%%%%%@*&%@@%&%@$%%%%%%$@",
"@-$&&&&&&$@%&@#&%@$&&&&&&#$@",
"@-**....%%.@%%%%@.%%....*&$@",
"@-**.XXX-*..@@@@.X-*.XXX-&$@",
"@-**.XXX-*.X....XX-*.XXX-&$@",
"@-&&....-&........-&....-&$@",
"@-&&....-&........-&....*&$@",
"@-&&%*--&&%****---&&%**-&%$@",
"@-#%%%%%%#%%%%%%%%#%%%%%%#$@",
"@@@@@@@@@@@@@@@@@@@@@@@@@@@@"
};
