/* XPM */
static char *_633595591558[] = {
/* columns rows colors chars-per-pixel */
"40 40 3 1 ",
"  c #9E7C59",
". c #B08A63",
"X c #C2986D",
/* pixels */
"XX..  ....XXXXXX..  ..XXXXXXXX..    ..XX",
"XX..  ....XXXXXX..  ..XXXXXXXX..    ..XX",
"XXXX  ..XXXXXXXXXX..  ........  ....  ..",
"XXXX  ..XXXXXXXXXX..  ........  ....  ..",
"....  XXXXXXXXXXXX            ..XXXX..  ",
"....  XXXXXXXXXXXX            ..XXXX..  ",
"      ..XXXXXXXX..  ........  ..XXXXXX  ",
"      ..XXXXXXXX..  ........  ..XXXXXX  ",
"......  ........    ..XXXX..  XXXXXXXX  ",
"......  ........    ..XXXX..  XXXXXXXX  ",
"XXXX..                ....    ....XX..  ",
"XXXX..                ....    ....XX..  ",
"XXXXXX..  ....  ......    ....    ..    ",
"XXXXXX..  ....  ......    ....    ..    ",
"XXXX..  ..XX..  XXXXXX  ..XXXXXXXX      ",
"XXXX..  ..XX..  XXXXXX  ..XXXXXXXX      ",
"XX..  ..XXXXXX  XXXX  ..XXXXXXXXXXXX  ..",
"XX..  ..XXXXXX  XXXX  ..XXXXXXXXXXXX  ..",
"..  ..XXXXXXXX  ..XX  XXXXXXXXXXXX..  ..",
"..  ..XXXXXXXX  ..XX  XXXXXXXXXXXX..  ..",
"    XXXXXXXX..  ..XX  ..XXXX........  ..",
"    XXXXXXXX..  ..XX  ..XXXX........  ..",
"..  ..XXXX..      ..    ....            ",
"..  ..XXXX..      ..    ....            ",
"..    ......        ....      ..........",
"..    ......        ....      ..........",
"            ....  ..XXXX....  ..XXXXXX..",
"            ....  ..XXXX....  ..XXXXXX..",
"........  ..XX..  ..XXXXXXXX..  XXXXXXXX",
"........  ..XX..  ..XXXXXXXX..  XXXXXXXX",
"XXXXXX..  XXXXXX..  ..XXXXXX..  XXXXXX..",
"XXXXXX..  XXXXXX..  ..XXXXXX..  XXXXXX..",
"XXXXXXXX  ..XX....    ..XXXX..  ........",
"XXXXXXXX  ..XX....    ..XXXX..  ........",
"XXXXXXXX..  ..          ....  ..        ",
"XXXXXXXX..  ..          ....  ..        ",
"XXXXXXXX..    ....          ..XXXX..  ..",
"..........  ..XXXX....      ........  XX",
"..........  ..XXXX....      ........  XX",
"          ..XXXXXXXXXX..            ..XX"
};
