/* XPM */
static char *_633601673124[] = {
/* columns rows colors chars-per-pixel */
"30 48 8 1 ",
"  c #050F14",
". c #380F04",
"X c #691B22",
"o c #9C341A",
"O c #8F5765",
"+ c #CF968C",
"@ c white",
"# c None",
/* pixels */
"##############################",
"##############################",
"##############################",
"##############################",
"##############################",
"##############################",
"##############################",
"##############################",
"##############################",
"#########..######..###########",
"########.oo..###.oo.##########",
"########.oooo....oo.##########",
"########.ooooooooooo.#########",
"########.ooooooooooo.#########",
"########.ooooooooooo.#########",
"########.ooo@@@@oooo@@########",
"#######.ooo@@@@@@oooo@@#######",
"#######.ooo@@@@ @oooo@@#######",
"#######.ooo@@@@ @ooooo@#######",
"#######.ooo@@@@@@ooooo.#######",
"#######.Xooo@@@@oo++oo.#######",
"#######.XXooooooo++++o.#######",
"#######.XXXoooooo++++o.#######",
"########.XXXooo++++++X.#######",
"#########.XXOOO++++OO.########",
"##########.XOOOOOOO..#########",
"###########.XXXXXX.###########",
"##########.ooooooo.###########",
"##########.ooXooooo.##########",
"##########.ooXooooo.##########",
"#########.oXoXoooooO.#########",
"#########.oX+Xooo+oo+.########",
"#########.o+++oo+++oO.########",
"#########.oOOOoo+++o.#########",
"#########.oooooX+++X.#########",
"#########.oooXXXOOO.##########",
"#########.ooXXOOOO.###########",
"#########.XXX.ooo.############",
"#########.+++.+++.############",
"#########.+OO.OOO.############",
"##############################",
"##############################",
"##############################",
"##############################",
"##############################",
"##############################",
"##############################",
"##############################"
};
