/* XPM */
static char *_633600405137[] = {
/* columns rows colors chars-per-pixel */
"40 40 8 1 ",
"  c black",
". c #433636",
"X c #534F54",
"o c #8E8174",
"O c #9B8E7F",
"+ c #B7AA91",
"@ c white",
"# c None",
/* pixels */
"OOOOOOOOOOOOOoX+OOOOOOOOOOOOOoXOOOOOOOOO",
"OOOOOOOOOOOOOoX+OOOOOOOOOOOOOoX+OOOOOOOO",
"ooooooooooooooXOooooooooooooooXOoooooooo",
"ooooooooooooooXOooooooooooooooX+oooooooo",
"..............X...............X.........",
"OOX++++O+O+++O+OO+OOX++++O+++OO+OOX++++O",
"OoX+OOOOOOOOOOOOOOOoX+OOOOOOOOOOOoX+OOOO",
"OoX+OOOOOOOOOOOOOOOoXOOOOOOOOOOOOoX+OOOO",
"OoXOOOOOOOOOOOOOOOOoX+OOOOOOOOOOOoXOOOOO",
"OoX+OOOOOOOOOOOOOOOoXOOOOOOOOOOOOoX+OOOO",
"ooX+ooooooooooooooooX+ooooooooooooX+oooo",
"ooXOooooooooooooooooXOooooooooooooXOoooo",
"..X.................X.............X.....",
"++O+O+O++OX+++++++O++O+O+OX++++O++O+O+O+",
"OOOOOOOOOoX+OOOOOOOOOOOOOoX+OOOOOOOOOOOO",
"OOOOOOOOOoX+OOOOOOOOOOOOOoXOOOOOOOOOOOOO",
"OOOOOOOOOoXOOOOOOOOOOOOOOoX+OOOOOOOOOOOO",
"OOOOOOOOOoX+OOOOOOOOOOOOOoXOOOOOOOOOOOOO",
"ooooooooooX+ooooooooooooooX+oooooooooooo",
"ooooooooooXOooooooooooooooXOoooooooooooo",
"..........X...............X.............",
"X+++O++++O+O+O+OX++++O+O+OO++O+OX+++O+++",
"X+OOOOOOOOOOOOOoX+OOOOOOOOOOOOOoX+OOOOOO",
"X+OOOOOOOOOOOOOoX+OOOOOOOOOOOOOoX+OOOOOO",
"XOOOOOOOOOOOOOOoXOOOOOOOOOOOOOOoXOOOOOOO",
"X+OOOOOOOOOOOOOoX+OOOOOOOOOOOOOoX+OOOOOO",
"XOooooooooooooooX+ooooooooooooooXOoooooo",
"X+ooooooooooooooXOooooooooooooooX+oooooo",
"X...............X...............X.......",
"++O+OO+OOX++O++O++O+O+++OX++++O+++O+OO+O",
"OOOOOOOOoX+OOOOOOOOOOOOOoX+OOOOOOOOOOOOO",
"OOOOOOOOoX+OOOOOOOOOOOOOoXOOOOOOOOOOOOOO",
"OOOOOOOOoXOOOOOOOOOOOOOOoX+OOOOOOOOOOOOO",
"OOOOOOOOoX+OOOOOOOOOOOOOoXOOOOOOOOOOOOOO",
"oooooooooXOooooooooooooooX+ooooooooooooo",
"oooooooooX+ooooooooooooooXOooooooooooooo",
".........X...............X..............",
"+OX+++O+O+++OO+++OX++O++OO++O++O+OX+++O+",
"OoX+OOOOOOOOOOOOOoX+OOOOOOOOOOOOOoX+OOOO",
"OoX+OOOOOOOOOOOOOoX+OOOOOOOOOOOOOoX+OOOO"
};
